<?xml version="1.0" standalone="no"?>
<!DOCTYPE svg PUBLIC "-//W3C//DTD SVG 20010904//EN"
 "http://www.w3.org/TR/2001/REC-SVG-20010904/DTD/svg10.dtd">
<svg version="1.0" xmlns="http://www.w3.org/2000/svg"
 width="126.000000pt" height="123.000000pt" viewBox="0 0 126.000000 123.000000"
 preserveAspectRatio="xMidYMid meet">

<g transform="translate(0.000000,123.000000) scale(0.100000,-0.100000)"
fill="#000000" stroke="none">
<path d="M473 1020 c-17 -10 -37 -29 -44 -41 -15 -29 -15 -97 0 -112 15 -15
59 27 63 62 2 20 9 27 30 29 21 3 38 -8 77 -47 28 -28 55 -51 59 -51 5 0 18
10 30 23 l22 23 -58 56 c-81 80 -122 93 -179 58z"/>
<path d="M673 1030 c-13 -5 -23 -13 -23 -18 0 -16 45 -50 70 -54 43 -5 38 -44
-13 -97 -56 -57 -67 -79 -67 -129 0 -75 72 -126 146 -102 l36 12 -28 29 c-15
16 -35 29 -44 29 -20 0 -40 19 -40 40 0 9 22 38 50 65 59 58 76 100 60 149
-21 64 -91 100 -147 76z"/>
<path d="M482 857 l-62 -63 28 -27 28 -27 62 63 62 63 -28 27 -28 27 -62 -63z"/>
<path d="M260 802 c-22 -10 -42 -32 -54 -55 -16 -34 -17 -44 -7 -79 l12 -40
29 27 c16 15 30 39 32 54 5 47 41 39 108 -22 33 -31 72 -58 89 -62 38 -8 95
16 117 51 21 31 24 98 6 116 -16 16 -60 -25 -64 -61 -5 -46 -42 -40 -103 18
-50 47 -89 71 -118 71 -7 0 -28 -8 -47 -18z"/>
<path d="M905 813 c-11 -3 -24 -9 -29 -14 -14 -13 32 -57 63 -61 20 -2 27 -9
29 -32 3 -23 -6 -39 -49 -82 l-53 -54 24 -25 24 -25 57 56 c32 32 63 70 70 86
24 57 -9 123 -74 147 -30 12 -30 12 -62 4z"/>
<path d="M782 787 c-12 -13 -22 -26 -22 -29 0 -3 26 -33 59 -67 l58 -60 26 27
27 28 -63 62 -63 63 -22 -24z"/>
<path d="M262 636 c-40 -44 -63 -77 -67 -100 -13 -69 56 -142 124 -132 19 3
39 10 45 16 14 14 -30 58 -63 62 -19 2 -27 10 -29 27 -3 18 10 38 52 80 l56
57 -28 27 -29 28 -61 -65z"/>
<path d="M470 592 c-14 -2 -29 -8 -34 -13 -14 -13 30 -56 65 -63 46 -9 39 -44
-23 -112 -59 -63 -71 -90 -57 -136 19 -68 88 -103 150 -78 l30 13 -27 28 c-15
15 -38 29 -53 31 -47 5 -40 42 22 107 31 32 57 70 61 88 8 34 -11 90 -36 111
-21 17 -67 29 -98 24z"/>
<path d="M713 589 c-45 -13 -73 -57 -73 -112 0 -25 5 -49 11 -52 14 -9 59 33
59 55 0 20 19 40 40 40 9 0 36 -20 60 -45 82 -83 148 -94 206 -34 23 24 29 39
29 74 0 60 -17 76 -49 46 -14 -13 -26 -35 -28 -50 -5 -47 -41 -39 -109 23 -33
31 -66 56 -74 56 -7 0 -19 2 -27 4 -7 2 -27 0 -45 -5z"/>
<path d="M332 558 l-22 -22 62 -63 62 -63 28 27 27 26 -57 58 c-31 33 -62 59
-67 59 -6 0 -21 -10 -33 -22z"/>
<path d="M707 420 c-31 -33 -57 -63 -57 -68 0 -5 10 -18 23 -30 l23 -22 62 63
62 63 -28 27 -27 26 -58 -59z"/>
<path d="M552 337 l-22 -24 63 -60 c34 -33 73 -63 86 -68 59 -18 131 27 146
93 6 30 -8 82 -23 82 -16 0 -50 -45 -54 -70 -2 -19 -10 -26 -30 -28 -21 -3
-38 8 -77 47 -28 28 -55 51 -59 51 -5 0 -18 -10 -30 -23z"/>
</g>
</svg>
